<?xml version="1.0" encoding="UTF-8" standalone="no"?>
<svg
   xmlns:dc="http://purl.org/dc/elements/1.1/"
   xmlns:cc="http://creativecommons.org/ns#"
   xmlns:rdf="http://www.w3.org/1999/02/22-rdf-syntax-ns#"
   xmlns:svg="http://www.w3.org/2000/svg"
   xmlns="http://www.w3.org/2000/svg"
   viewBox="0 0 2933.3333 2933.3333"
   height="2933.3333"
   width="2933.3333"
   xml:space="preserve"
   id="svg2"
   version="1.1"><metadata
     id="metadata8"><rdf:RDF><cc:Work
         rdf:about=""><dc:format>image/svg+xml</dc:format><dc:type
           rdf:resource="http://purl.org/dc/dcmitype/StillImage" /></cc:Work></rdf:RDF></metadata><defs
     id="defs6" /><g
     transform="matrix(1.3333333,0,0,-1.3333333,0,2933.3333)"
     id="g10"><g
       transform="scale(0.1)"
       id="g12"><g
         transform="scale(1.34969)"
         id="g14"><path
           id="path16"
           style="fill:#ffffff;fill-opacity:1;fill-rule:nonzero;stroke:none"
           d="M 16300,0 H 0 V 16300 H 16300 V 0" /></g><path
         id="path18"
         style="fill:#1f2750;fill-opacity:1;fill-rule:nonzero;stroke:none"
         d="m 11000,9238.3 c -2288.19,0 -4143.11,558.9 -4143.11,1248.4 v -1978 c 0,-689.5 1854.92,-1248.5 4143.11,-1248.5 2288.2,0 4143.1,559 4143.1,1248.5 v 1978 c 0,-689.5 -1854.9,-1248.4 -4143.1,-1248.4" /><path
         id="path20"
         style="fill:#1f2750;fill-opacity:1;fill-rule:nonzero;stroke:none"
         d="m 11000,12502.3 c -1828.38,0 -3310.53,367 -3310.53,819.8 0,452.8 1482.15,819.8 3310.53,819.8 1828.4,0 3310.5,-367 3310.5,-819.8 0,-452.8 -1482.1,-819.8 -3310.5,-819.8 z m 0,2068.3 c -2288.19,0 -4143.11,-559 -4143.11,-1248.5 v -1978 c 0,-689.5 1854.92,-1248.5 4143.11,-1248.5 2288.2,0 4143.1,559 4143.1,1248.5 v 1978 c 0,689.5 -1854.9,1248.5 -4143.1,1248.5" /><path
         id="path22"
         style="fill:#1f2750;fill-opacity:1;fill-rule:nonzero;stroke:none"
         d="m 11000,6402.9 c -2288.19,0 -4143.11,558.9 -4143.11,1248.4 v -1978 c 0,-689.5 1854.92,-1248.4 4143.11,-1248.4 2288.2,0 4143.1,558.9 4143.1,1248.4 v 1978 c 0,-689.5 -1854.9,-1248.4 -4143.1,-1248.4" /><path
         id="path24"
         style="fill:#3c5fb5;fill-opacity:1;fill-rule:nonzero;stroke:none"
         d="m 6521.61,12245.7 v -1978 c -90.98,-1.9 -182.73,-2.8 -275.16,-2.8 -2288.15,0 -4143.1,558.9 -4143.1,1248.4 v 1978 c 0,-689.5 1854.95,-1248.4 4143.1,-1248.4 92.43,0 184.18,0.9 275.16,2.8" /><g
         transform="scale(1.07823)"
         id="g26"><path
           id="path28"
           style="fill:#3c5fb5;fill-opacity:1;fill-rule:nonzero;stroke:none"
           d="m 5793.25,14381.9 c -1695.7,0 -3070.38,340.3 -3070.38,760.3 0,419.9 1374.68,760.3 3070.38,760.3 1695.69,0 3070.37,-340.4 3070.37,-760.3 0,-420 -1374.68,-760.3 -3070.37,-760.3 z m 0,1918.1 c -2122.14,0 -3842.5,-518.4 -3842.5,-1157.8 v -1834.5 c 0,-639.6 1720.36,-1157.9 3842.5,-1157.9 85.72,0 170.81,0.8 255.19,2.5 v 203.2 c 0,327.2 235.19,563.5 432.45,704 221.2,157.6 528.85,296.4 914.24,412.5 617.58,186 1398.11,303.8 2240.57,340.2 v 1330 c 0,639.4 -1720.33,1157.8 -3842.45,1157.8" /></g><path
         id="path30"
         style="fill:#3c5fb5;fill-opacity:1;fill-rule:nonzero;stroke:none"
         d="m 6521.61,9410.2 v -1978 c -90.98,-1.9 -182.73,-2.8 -275.16,-2.8 -2288.15,0 -4143.1,559.1 -4143.1,1248.5 v 1978 c 0,-689.4 1854.95,-1248.5 4143.1,-1248.5 92.43,0 184.18,0.9 275.16,2.8" /><g
         transform="scale(1.22066)"
         id="g32"><path
           id="path34"
           style="fill:#3c5fb5;fill-opacity:1;fill-rule:nonzero;stroke:none"
           d="M 12680.4,10032 V 8411.62 c 74.5,-1.56 149.7,-2.29 225.4,-2.29 1874.5,0 3394.2,457.87 3394.2,1022.73 v 1620.44 c 0,-564.9 -1519.7,-1022.8 -3394.2,-1022.8 -75.7,0 -150.9,0.8 -225.4,2.3" /></g><g
         transform="scale(1.22066)"
         id="g36"><path
           id="path38"
           style="fill:#3c5fb5;fill-opacity:1;fill-rule:nonzero;stroke:none"
           d="m 10193.7,13375.4 c 0,370.9 1214.3,671.6 2712.1,671.6 1497.8,0 2712.1,-300.7 2712.1,-671.6 0,-371 -1214.3,-671.6 -2712.1,-671.6 -1497.8,0 -2712.1,300.6 -2712.1,671.6 z m -682.02,0 v -1174.8 c 744.22,-32.2 1433.62,-136.2 1979.22,-300.5 340.4,-102.6 612.1,-225.2 807.5,-364.4 174.2,-124.1 382,-332.8 382,-621.8 v -179.5 c 74.5,-1.6 149.7,-2.3 225.4,-2.3 1874.5,0 3394.2,457.9 3394.2,1022.8 v 1620.5 c 0,564.8 -1519.7,1022.7 -3394.2,1022.7 -1874.5,0 -3394.12,-457.9 -3394.12,-1022.7" /></g><g
         transform="scale(1.22066)"
         id="g40"><path
           id="path42"
           style="fill:#3c5fb5;fill-opacity:1;fill-rule:nonzero;stroke:none"
           d="M 12680.4,7709.13 V 6088.69 c 74.5,-1.56 149.7,-2.29 225.4,-2.29 1874.5,0 3394.2,458.03 3394.2,1022.81 v 1620.43 c 0,-564.77 -1519.7,-1022.8 -3394.2,-1022.8 -75.7,0 -150.9,0.73 -225.4,2.29" /></g></g></g></svg>